<mxfile host="app.diagrams.net" agent="Mozilla/5.0 (Windows NT 10.0; Win64; x64) AppleWebKit/537.36 (KHTML, like Gecko) Chrome/130.0.0.0 Safari/537.36" version="24.8.3">
  <diagram name="Page-1" id="-IKmMkS2sOBBCPMymawj">
    <mxGraphModel dx="916" dy="1957" grid="1" gridSize="10" guides="1" tooltips="1" connect="1" arrows="1" fold="1" page="1" pageScale="1" pageWidth="850" pageHeight="1100" math="0" shadow="0">
      <root>
        <mxCell id="0" />
        <mxCell id="1" parent="0" />
        <mxCell id="u8G5SvZobk9JoU-ahpJR-9" style="rounded=0;orthogonalLoop=1;jettySize=auto;html=1;exitX=0.5;exitY=0.5;exitDx=0;exitDy=0;exitPerimeter=0;" edge="1" parent="1" source="u8G5SvZobk9JoU-ahpJR-1" target="u8G5SvZobk9JoU-ahpJR-6">
          <mxGeometry relative="1" as="geometry" />
        </mxCell>
        <mxCell id="u8G5SvZobk9JoU-ahpJR-10" value="PURCHASE" style="edgeLabel;html=1;align=center;verticalAlign=middle;resizable=0;points=[];" vertex="1" connectable="0" parent="u8G5SvZobk9JoU-ahpJR-9">
          <mxGeometry x="-0.031" y="1" relative="1" as="geometry">
            <mxPoint as="offset" />
          </mxGeometry>
        </mxCell>
        <mxCell id="u8G5SvZobk9JoU-ahpJR-11" style="rounded=0;orthogonalLoop=1;jettySize=auto;html=1;exitX=0.5;exitY=0.5;exitDx=0;exitDy=0;exitPerimeter=0;" edge="1" parent="1" source="u8G5SvZobk9JoU-ahpJR-1" target="u8G5SvZobk9JoU-ahpJR-3">
          <mxGeometry relative="1" as="geometry" />
        </mxCell>
        <mxCell id="u8G5SvZobk9JoU-ahpJR-12" value="VIEW" style="edgeLabel;html=1;align=center;verticalAlign=middle;resizable=0;points=[];" vertex="1" connectable="0" parent="u8G5SvZobk9JoU-ahpJR-11">
          <mxGeometry x="0.0467" relative="1" as="geometry">
            <mxPoint as="offset" />
          </mxGeometry>
        </mxCell>
        <mxCell id="u8G5SvZobk9JoU-ahpJR-13" style="rounded=0;orthogonalLoop=1;jettySize=auto;html=1;exitX=0.5;exitY=0.5;exitDx=0;exitDy=0;exitPerimeter=0;" edge="1" parent="1" source="u8G5SvZobk9JoU-ahpJR-1" target="u8G5SvZobk9JoU-ahpJR-8">
          <mxGeometry relative="1" as="geometry" />
        </mxCell>
        <mxCell id="u8G5SvZobk9JoU-ahpJR-14" value="VIEW" style="edgeLabel;html=1;align=center;verticalAlign=middle;resizable=0;points=[];" vertex="1" connectable="0" parent="u8G5SvZobk9JoU-ahpJR-13">
          <mxGeometry x="0.0233" y="-3" relative="1" as="geometry">
            <mxPoint x="-85" y="-47" as="offset" />
          </mxGeometry>
        </mxCell>
        <mxCell id="u8G5SvZobk9JoU-ahpJR-1" value="USER" style="shape=umlActor;verticalLabelPosition=bottom;verticalAlign=top;html=1;outlineConnect=0;" vertex="1" parent="1">
          <mxGeometry x="63" y="-682" width="70" height="100" as="geometry" />
        </mxCell>
        <mxCell id="u8G5SvZobk9JoU-ahpJR-15" style="edgeStyle=orthogonalEdgeStyle;rounded=0;orthogonalLoop=1;jettySize=auto;html=1;exitX=0.5;exitY=0.5;exitDx=0;exitDy=0;exitPerimeter=0;" edge="1" parent="1" source="u8G5SvZobk9JoU-ahpJR-2" target="u8G5SvZobk9JoU-ahpJR-1">
          <mxGeometry relative="1" as="geometry">
            <Array as="points">
              <mxPoint x="43" y="-352" />
              <mxPoint x="43" y="-632" />
            </Array>
          </mxGeometry>
        </mxCell>
        <mxCell id="u8G5SvZobk9JoU-ahpJR-16" value="MANAGE" style="edgeLabel;html=1;align=center;verticalAlign=middle;resizable=0;points=[];" vertex="1" connectable="0" parent="u8G5SvZobk9JoU-ahpJR-15">
          <mxGeometry x="-0.0737" y="2" relative="1" as="geometry">
            <mxPoint as="offset" />
          </mxGeometry>
        </mxCell>
        <mxCell id="u8G5SvZobk9JoU-ahpJR-17" style="rounded=0;orthogonalLoop=1;jettySize=auto;html=1;exitX=0.5;exitY=0.5;exitDx=0;exitDy=0;exitPerimeter=0;" edge="1" parent="1" source="u8G5SvZobk9JoU-ahpJR-2" target="u8G5SvZobk9JoU-ahpJR-7">
          <mxGeometry relative="1" as="geometry" />
        </mxCell>
        <mxCell id="u8G5SvZobk9JoU-ahpJR-18" value="MONITOR" style="edgeLabel;html=1;align=center;verticalAlign=middle;resizable=0;points=[];" vertex="1" connectable="0" parent="u8G5SvZobk9JoU-ahpJR-17">
          <mxGeometry x="-0.219" y="-2" relative="1" as="geometry">
            <mxPoint as="offset" />
          </mxGeometry>
        </mxCell>
        <mxCell id="u8G5SvZobk9JoU-ahpJR-19" style="rounded=0;orthogonalLoop=1;jettySize=auto;html=1;exitX=0.5;exitY=0.5;exitDx=0;exitDy=0;exitPerimeter=0;" edge="1" parent="1" source="u8G5SvZobk9JoU-ahpJR-2" target="u8G5SvZobk9JoU-ahpJR-3">
          <mxGeometry relative="1" as="geometry" />
        </mxCell>
        <mxCell id="u8G5SvZobk9JoU-ahpJR-20" value="ADJUST" style="edgeLabel;html=1;align=center;verticalAlign=middle;resizable=0;points=[];" vertex="1" connectable="0" parent="u8G5SvZobk9JoU-ahpJR-19">
          <mxGeometry x="-0.0467" y="-1" relative="1" as="geometry">
            <mxPoint x="40" y="-28" as="offset" />
          </mxGeometry>
        </mxCell>
        <mxCell id="u8G5SvZobk9JoU-ahpJR-2" value="ADMIN" style="shape=umlActor;verticalLabelPosition=bottom;verticalAlign=top;html=1;outlineConnect=0;" vertex="1" parent="1">
          <mxGeometry x="63" y="-402" width="70" height="100" as="geometry" />
        </mxCell>
        <mxCell id="u8G5SvZobk9JoU-ahpJR-4" value="" style="swimlane;startSize=0;" vertex="1" parent="1">
          <mxGeometry x="503" y="-763" width="320" height="520" as="geometry" />
        </mxCell>
        <mxCell id="u8G5SvZobk9JoU-ahpJR-3" value="BALANCE" style="ellipse;whiteSpace=wrap;html=1;" vertex="1" parent="u8G5SvZobk9JoU-ahpJR-4">
          <mxGeometry x="80" y="41" width="160" height="80" as="geometry" />
        </mxCell>
        <mxCell id="u8G5SvZobk9JoU-ahpJR-6" value="UNITS" style="ellipse;whiteSpace=wrap;html=1;" vertex="1" parent="u8G5SvZobk9JoU-ahpJR-4">
          <mxGeometry x="80" y="161" width="160" height="80" as="geometry" />
        </mxCell>
        <mxCell id="u8G5SvZobk9JoU-ahpJR-7" value="METER STATUS" style="ellipse;whiteSpace=wrap;html=1;" vertex="1" parent="u8G5SvZobk9JoU-ahpJR-4">
          <mxGeometry x="80" y="281" width="160" height="80" as="geometry" />
        </mxCell>
        <mxCell id="u8G5SvZobk9JoU-ahpJR-8" value="TRANSACTION HISTORY" style="ellipse;whiteSpace=wrap;html=1;" vertex="1" parent="u8G5SvZobk9JoU-ahpJR-4">
          <mxGeometry x="80" y="400" width="160" height="80" as="geometry" />
        </mxCell>
        <mxCell id="u8G5SvZobk9JoU-ahpJR-5" value="&lt;font style=&quot;font-size: 27px;&quot;&gt;Prepaid Meter System&lt;/font&gt;" style="text;whiteSpace=wrap;html=1;align=center;" vertex="1" parent="1">
          <mxGeometry x="503" y="-803" width="320" height="40" as="geometry" />
        </mxCell>
        <mxCell id="u8G5SvZobk9JoU-ahpJR-21" value="&lt;font style=&quot;font-size: 39px;&quot;&gt;Computerized Prepaid Meter Unit System Use-Case Diagram&lt;/font&gt;" style="text;html=1;align=center;verticalAlign=middle;whiteSpace=wrap;rounded=0;" vertex="1" parent="1">
          <mxGeometry x="25" y="-1080" width="800" height="180" as="geometry" />
        </mxCell>
      </root>
    </mxGraphModel>
  </diagram>
</mxfile>
